<svg width="64" height="63" viewBox="0 0 64 63" fill="none" xmlns="http://www.w3.org/2000/svg">
<path d="M35.2 28.35H48V34.65H35.2V47.25H28.8V34.65H16V28.35H28.8V15.75H35.2V28.35ZM32 63C23.5131 63 15.3737 59.6813 9.37258 53.7739C3.37142 47.8665 0 39.8543 0 31.5C0 23.1457 3.37142 15.1335 9.37258 9.22614C15.3737 3.31874 23.5131 0 32 0C40.4869 0 48.6263 3.31874 54.6274 9.22614C60.6286 15.1335 64 23.1457 64 31.5C64 39.8543 60.6286 47.8665 54.6274 53.7739C48.6263 59.6813 40.4869 63 32 63ZM32 56.7C38.7895 56.7 45.301 54.045 50.1019 49.3191C54.9029 44.5932 57.6 38.1835 57.6 31.5C57.6 24.8165 54.9029 18.4068 50.1019 13.6809C45.301 8.95499 38.7895 6.3 32 6.3C25.2105 6.3 18.699 8.95499 13.8981 13.6809C9.09714 18.4068 6.4 24.8165 6.4 31.5C6.4 38.1835 9.09714 44.5932 13.8981 49.3191C18.699 54.045 25.2105 56.7 32 56.7Z" fill="black"/>
</svg>
